<mxfile host="app.diagrams.net" modified="2023-10-26T18:43:49.458Z" agent="Mozilla/5.0 (Windows NT 10.0; Win64; x64) AppleWebKit/537.36 (KHTML, like Gecko) Chrome/116.0.0.0 Safari/537.36 OPR/102.0.0.0" etag="bnLGyGMoCpowzaw4Gvf1" version="22.0.8" type="device">
  <diagram name="Page-1" id="XEkPOjl-qdYywtE6vLCS">
    <mxGraphModel dx="1920" dy="1114" grid="1" gridSize="10" guides="1" tooltips="1" connect="1" arrows="1" fold="1" page="1" pageScale="1" pageWidth="1169" pageHeight="827" background="#ffffff" math="0" shadow="0">
      <root>
        <mxCell id="0" />
        <mxCell id="1" parent="0" />
        <mxCell id="OtMJaFd4Xo8tQMw885LT-32" value="" style="rounded=1;whiteSpace=wrap;html=1;arcSize=7;" vertex="1" parent="1">
          <mxGeometry x="-120" y="160" width="880" height="360" as="geometry" />
        </mxCell>
        <mxCell id="OtMJaFd4Xo8tQMw885LT-1" value="" style="html=1;verticalAlign=bottom;startArrow=circle;startFill=1;endArrow=open;startSize=6;endSize=8;curved=0;rounded=0;entryX=0.5;entryY=0;entryDx=0;entryDy=0;" edge="1" parent="1" target="OtMJaFd4Xo8tQMw885LT-3">
          <mxGeometry width="80" relative="1" as="geometry">
            <mxPoint x="-80" y="190" as="sourcePoint" />
            <mxPoint x="-80" y="280" as="targetPoint" />
          </mxGeometry>
        </mxCell>
        <mxCell id="OtMJaFd4Xo8tQMw885LT-4" style="edgeStyle=orthogonalEdgeStyle;rounded=0;orthogonalLoop=1;jettySize=auto;html=1;entryX=0.5;entryY=0;entryDx=0;entryDy=0;" edge="1" parent="1" source="OtMJaFd4Xo8tQMw885LT-3" target="OtMJaFd4Xo8tQMw885LT-24">
          <mxGeometry relative="1" as="geometry">
            <mxPoint x="80" y="305" as="targetPoint" />
          </mxGeometry>
        </mxCell>
        <mxCell id="OtMJaFd4Xo8tQMw885LT-5" value="group exists" style="edgeLabel;html=1;align=center;verticalAlign=middle;resizable=0;points=[];" vertex="1" connectable="0" parent="OtMJaFd4Xo8tQMw885LT-4">
          <mxGeometry x="-0.2049" relative="1" as="geometry">
            <mxPoint as="offset" />
          </mxGeometry>
        </mxCell>
        <mxCell id="OtMJaFd4Xo8tQMw885LT-17" style="edgeStyle=orthogonalEdgeStyle;rounded=0;orthogonalLoop=1;jettySize=auto;html=1;entryX=0;entryY=0.5;entryDx=0;entryDy=0;" edge="1" parent="1" source="OtMJaFd4Xo8tQMw885LT-3" target="OtMJaFd4Xo8tQMw885LT-13">
          <mxGeometry relative="1" as="geometry">
            <Array as="points">
              <mxPoint x="-80" y="440" />
              <mxPoint x="10" y="440" />
              <mxPoint x="10" y="439" />
            </Array>
          </mxGeometry>
        </mxCell>
        <mxCell id="OtMJaFd4Xo8tQMw885LT-18" value="group does not exist" style="edgeLabel;html=1;align=center;verticalAlign=middle;resizable=0;points=[];" vertex="1" connectable="0" parent="OtMJaFd4Xo8tQMw885LT-17">
          <mxGeometry x="0.2272" y="2" relative="1" as="geometry">
            <mxPoint x="24" y="1" as="offset" />
          </mxGeometry>
        </mxCell>
        <mxCell id="OtMJaFd4Xo8tQMw885LT-3" value="" style="rhombus;whiteSpace=wrap;html=1;" vertex="1" parent="1">
          <mxGeometry x="-100" y="280" width="40" height="50" as="geometry" />
        </mxCell>
        <mxCell id="OtMJaFd4Xo8tQMw885LT-11" style="edgeStyle=orthogonalEdgeStyle;rounded=0;orthogonalLoop=1;jettySize=auto;html=1;entryX=0;entryY=0.5;entryDx=0;entryDy=0;" edge="1" parent="1" source="OtMJaFd4Xo8tQMw885LT-9" target="OtMJaFd4Xo8tQMw885LT-10">
          <mxGeometry relative="1" as="geometry" />
        </mxCell>
        <mxCell id="OtMJaFd4Xo8tQMw885LT-9" value="Save group" style="rounded=1;whiteSpace=wrap;html=1;" vertex="1" parent="1">
          <mxGeometry x="586" y="346" width="90" height="36" as="geometry" />
        </mxCell>
        <mxCell id="OtMJaFd4Xo8tQMw885LT-10" value="" style="ellipse;html=1;shape=endState;fillColor=#000000;strokeColor=#ff0000;" vertex="1" parent="1">
          <mxGeometry x="714" y="349" width="30" height="30" as="geometry" />
        </mxCell>
        <mxCell id="OtMJaFd4Xo8tQMw885LT-16" style="edgeStyle=orthogonalEdgeStyle;rounded=0;orthogonalLoop=1;jettySize=auto;html=1;entryX=0;entryY=0.5;entryDx=0;entryDy=0;" edge="1" parent="1" source="OtMJaFd4Xo8tQMw885LT-13" target="OtMJaFd4Xo8tQMw885LT-15">
          <mxGeometry relative="1" as="geometry" />
        </mxCell>
        <mxCell id="OtMJaFd4Xo8tQMw885LT-13" value="Receive initial data from user" style="rounded=1;whiteSpace=wrap;html=1;" vertex="1" parent="1">
          <mxGeometry x="80" y="421" width="90" height="36" as="geometry" />
        </mxCell>
        <mxCell id="OtMJaFd4Xo8tQMw885LT-20" style="edgeStyle=orthogonalEdgeStyle;rounded=0;orthogonalLoop=1;jettySize=auto;html=1;entryX=0.5;entryY=1;entryDx=0;entryDy=0;" edge="1" parent="1" source="OtMJaFd4Xo8tQMw885LT-15" target="OtMJaFd4Xo8tQMw885LT-24">
          <mxGeometry relative="1" as="geometry">
            <mxPoint x="330" y="440" as="targetPoint" />
          </mxGeometry>
        </mxCell>
        <mxCell id="OtMJaFd4Xo8tQMw885LT-21" value="data valid" style="edgeLabel;html=1;align=center;verticalAlign=middle;resizable=0;points=[];" vertex="1" connectable="0" parent="OtMJaFd4Xo8tQMw885LT-20">
          <mxGeometry x="-0.1513" relative="1" as="geometry">
            <mxPoint x="-22" as="offset" />
          </mxGeometry>
        </mxCell>
        <mxCell id="OtMJaFd4Xo8tQMw885LT-15" value="" style="rhombus;whiteSpace=wrap;html=1;" vertex="1" parent="1">
          <mxGeometry x="210" y="414" width="40" height="50" as="geometry" />
        </mxCell>
        <mxCell id="OtMJaFd4Xo8tQMw885LT-22" style="edgeStyle=orthogonalEdgeStyle;rounded=0;orthogonalLoop=1;jettySize=auto;html=1;entryX=0.444;entryY=1.083;entryDx=0;entryDy=0;entryPerimeter=0;" edge="1" parent="1" source="OtMJaFd4Xo8tQMw885LT-15" target="OtMJaFd4Xo8tQMw885LT-13">
          <mxGeometry relative="1" as="geometry">
            <Array as="points">
              <mxPoint x="230" y="500" />
              <mxPoint x="120" y="500" />
            </Array>
          </mxGeometry>
        </mxCell>
        <mxCell id="OtMJaFd4Xo8tQMw885LT-23" value="data invalid" style="edgeLabel;html=1;align=center;verticalAlign=middle;resizable=0;points=[];" vertex="1" connectable="0" parent="OtMJaFd4Xo8tQMw885LT-22">
          <mxGeometry x="-0.0662" y="1" relative="1" as="geometry">
            <mxPoint as="offset" />
          </mxGeometry>
        </mxCell>
        <mxCell id="OtMJaFd4Xo8tQMw885LT-30" style="edgeStyle=orthogonalEdgeStyle;rounded=0;orthogonalLoop=1;jettySize=auto;html=1;entryX=0;entryY=0.5;entryDx=0;entryDy=0;" edge="1" parent="1" source="OtMJaFd4Xo8tQMw885LT-24" target="OtMJaFd4Xo8tQMw885LT-26">
          <mxGeometry relative="1" as="geometry" />
        </mxCell>
        <mxCell id="OtMJaFd4Xo8tQMw885LT-24" value="" style="rhombus;whiteSpace=wrap;html=1;" vertex="1" parent="1">
          <mxGeometry x="303" y="340" width="40" height="50" as="geometry" />
        </mxCell>
        <mxCell id="OtMJaFd4Xo8tQMw885LT-25" style="edgeStyle=orthogonalEdgeStyle;rounded=0;orthogonalLoop=1;jettySize=auto;html=1;entryX=0;entryY=0.5;entryDx=0;entryDy=0;" edge="1" source="OtMJaFd4Xo8tQMw885LT-26" target="OtMJaFd4Xo8tQMw885LT-27" parent="1">
          <mxGeometry relative="1" as="geometry" />
        </mxCell>
        <mxCell id="OtMJaFd4Xo8tQMw885LT-26" value="Receive data from user" style="rounded=1;whiteSpace=wrap;html=1;" vertex="1" parent="1">
          <mxGeometry x="373" y="346" width="90" height="36" as="geometry" />
        </mxCell>
        <mxCell id="OtMJaFd4Xo8tQMw885LT-31" style="edgeStyle=orthogonalEdgeStyle;rounded=0;orthogonalLoop=1;jettySize=auto;html=1;entryX=0;entryY=0.5;entryDx=0;entryDy=0;" edge="1" parent="1" source="OtMJaFd4Xo8tQMw885LT-27" target="OtMJaFd4Xo8tQMw885LT-9">
          <mxGeometry relative="1" as="geometry" />
        </mxCell>
        <mxCell id="OtMJaFd4Xo8tQMw885LT-27" value="" style="rhombus;whiteSpace=wrap;html=1;" vertex="1" parent="1">
          <mxGeometry x="503" y="339" width="40" height="50" as="geometry" />
        </mxCell>
        <mxCell id="OtMJaFd4Xo8tQMw885LT-28" style="edgeStyle=orthogonalEdgeStyle;rounded=0;orthogonalLoop=1;jettySize=auto;html=1;entryX=0.444;entryY=1.083;entryDx=0;entryDy=0;entryPerimeter=0;" edge="1" source="OtMJaFd4Xo8tQMw885LT-27" target="OtMJaFd4Xo8tQMw885LT-26" parent="1">
          <mxGeometry relative="1" as="geometry">
            <Array as="points">
              <mxPoint x="523" y="425" />
              <mxPoint x="413" y="425" />
            </Array>
          </mxGeometry>
        </mxCell>
        <mxCell id="OtMJaFd4Xo8tQMw885LT-29" value="data invalid" style="edgeLabel;html=1;align=center;verticalAlign=middle;resizable=0;points=[];" vertex="1" connectable="0" parent="OtMJaFd4Xo8tQMw885LT-28">
          <mxGeometry x="-0.0662" y="1" relative="1" as="geometry">
            <mxPoint as="offset" />
          </mxGeometry>
        </mxCell>
        <mxCell id="OtMJaFd4Xo8tQMw885LT-33" value="Create/modify group" style="text;html=1;align=center;verticalAlign=middle;resizable=0;points=[];autosize=1;strokeColor=none;fillColor=none;" vertex="1" parent="1">
          <mxGeometry x="-120" y="160" width="130" height="30" as="geometry" />
        </mxCell>
      </root>
    </mxGraphModel>
  </diagram>
</mxfile>
